<svg xmlns="http://www.w3.org/2000/svg" fill="none" viewBox="0 0 108 24" height="24" width="108">
<g clip-path="url(#clip0_2348_1305)">
<g clip-path="url(#clip1_2348_1305)">
<path fill="#323232" d="M57.36 17.255C56.98 18.355 56.42 19.295 55.67 20.095C54.92 20.895 54.03 21.505 52.98 21.915C51.93 22.325 50.76 22.545 49.47 22.545C47.68 22.545 46.11 22.125 44.76 21.305C43.41 20.485 42.37 19.305 41.62 17.795C40.87 16.285 40.5 14.475 40.5 12.385C40.5 10.295 40.87 8.485 41.61 6.975C42.35 5.465 43.39 4.285 44.74 3.465C46.08 2.635 47.65 2.225 49.45 2.225C50.78 2.225 51.96 2.415 52.96 2.775C53.97 3.145 54.82 3.695 55.52 4.415C56.22 5.145 56.75 6.035 57.11 7.095L55.65 7.785C55.19 6.405 54.46 5.365 53.47 4.655C52.46 3.955 51.15 3.605 49.54 3.605C48.07 3.605 46.76 3.955 45.64 4.665C44.52 5.375 43.64 6.375 43.01 7.685C42.38 8.985 42.07 10.555 42.07 12.395C42.07 14.235 42.38 15.775 43 17.085C43.62 18.405 44.48 19.415 45.6 20.125C46.71 20.835 48.01 21.185 49.49 21.185C51.08 21.185 52.44 20.805 53.56 20.035C54.67 19.275 55.45 18.155 55.89 16.705L57.37 17.275L57.36 17.255Z"></path>
<path fill="#323232" d="M61.7595 21.185H73.5995V22.565H60.2695V2.215H61.7695V21.195L61.7595 21.185Z"></path>
<path fill="#323232" d="M90.76 2.225V15.105C90.76 17.555 90.1 19.415 88.77 20.695C87.44 21.975 85.58 22.605 83.16 22.605C80.74 22.605 78.88 21.965 77.54 20.695C76.21 19.415 75.54 17.555 75.54 15.105V2.225H77.04V14.805C77.04 16.915 77.56 18.515 78.61 19.605C79.66 20.695 81.17 21.235 83.17 21.235C85.17 21.235 86.68 20.685 87.71 19.605C88.74 18.525 89.26 16.915 89.26 14.805V2.225H90.76Z"></path>
<path fill="#323232" d="M93.9297 22.585V2.225H100.9C103.07 2.225 104.68 2.695 105.74 3.635C106.8 4.565 107.33 5.905 107.33 7.635C107.33 8.815 107.02 9.815 106.4 10.645C105.78 11.475 104.89 12.015 103.71 12.265V12.295C104.99 12.505 106 13.045 106.75 13.915C107.5 14.795 107.87 15.865 107.87 17.135C107.87 18.845 107.27 20.175 106.08 21.145C104.89 22.115 103.16 22.595 100.91 22.595H93.9397L93.9297 22.585ZM95.4197 11.605H100.92C104.13 11.605 105.73 10.275 105.73 7.625C105.73 4.975 104.13 3.645 100.92 3.645H95.4197V11.605ZM95.4197 21.165H101.19C102.88 21.165 104.15 20.815 105 20.115C105.85 19.415 106.27 18.405 106.27 17.085C106.27 15.765 105.85 14.735 105 14.045C104.15 13.355 102.88 13.015 101.19 13.015H95.4197V21.165Z"></path>
<path fill="#323232" d="M0.0802374 18.845C-0.349763 13.955 1.11024 6.745 1.58024 5.395C1.93024 4.365 2.49024 2.785 3.48024 2.175C4.72024 1.415 6.81024 4.215 7.30024 4.925C8.05024 6.015 8.80024 7.745 10.2402 8.035C10.8802 8.165 11.5402 7.955 12.0802 7.605C13.2902 6.825 14.1502 5.535 14.9402 4.365C15.5502 3.475 16.5202 1.765 17.8202 1.935C19.6502 2.165 20.9502 3.715 21.4002 8.735C21.4002 11.085 20.4802 16.495 19.7202 18.865C18.9602 21.225 18.0402 23.665 15.7602 21.455C14.2802 20.025 11.8402 16.185 9.55024 16.905C7.42024 17.575 6.73024 21.055 5.19024 22.465C4.73024 22.885 4.19024 23.255 3.59024 23.395C1.29024 23.945 0.330237 21.825 0.0702374 18.865L0.0802374 18.845Z"></path>
<path fill="#323232" d="M29.5607 8.685C29.8007 12.215 28.7807 16.195 27.2007 19.405C26.6507 20.505 25.8507 21.795 24.7407 22.325C22.8807 23.205 22.0707 20.745 22.2307 19.265C22.5707 16.035 22.2007 12.055 24.4307 9.355C25.4907 8.065 29.3507 5.525 29.5607 8.685Z"></path>
<path fill="#323232" d="M26.2207 1.215C26.2207 1.215 26.2807 1.175 26.3207 1.155C27.1607 0.625 28.4607 0.355 29.4107 0.665C30.5107 1.025 31.2507 2.145 31.0607 3.295C30.8907 4.365 30.0507 4.845 29.1007 5.175C27.8507 5.615 26.4907 6.195 25.7807 5.615C24.4907 4.575 24.9607 2.125 26.2207 1.215Z"></path>
<path fill="#323232" d="M34.5902 7.465C34.5902 7.465 35.5102 7.595 35.1202 9.575C34.7302 11.555 35.2902 15.415 32.9702 21.825C32.8102 22.255 32.3302 22.595 31.9102 22.385C30.5602 21.725 30.9202 18.825 31.0202 17.605C31.2002 15.385 31.0902 13.205 31.8102 11.125C31.8902 10.885 31.9702 10.635 32.0702 10.405C33.1702 8.115 33.4302 7.185 34.5802 7.465H34.5902Z"></path>
<path fill="#323232" d="M33.3106 2.905C33.5206 2.465 33.7906 2.055 34.1906 1.755C34.8606 1.245 36.1506 0.974999 36.7706 1.705C37.5206 2.595 36.8906 3.585 36.2306 4.335C35.9706 4.625 35.7906 4.915 35.4706 5.175C34.8506 5.675 34.0706 5.955 33.5806 5.425C33.0106 4.785 32.9806 3.635 33.3206 2.905H33.3106Z"></path>
<path fill="#323232" d="M37.8902 22.515C36.9802 22.515 36.2402 21.775 36.2402 20.865C36.2402 19.955 36.9802 19.215 37.8902 19.215C38.8002 19.215 39.5402 19.955 39.5402 20.865C39.5402 21.775 38.8002 22.515 37.8902 22.515Z"></path>
</g>
</g>
<defs>
<clipPath id="clip0_2348_1305">
<rect transform="translate(0 0.535)" fill="white" height="22.93" width="107.86"></rect>
</clipPath>
<clipPath id="clip1_2348_1305">
<rect transform="translate(0 0.535)" fill="white" height="22.93" width="107.86"></rect>
</clipPath>
</defs>
</svg>
